<?xml version="1.0" encoding="UTF-8"?>
<svg id="Layer_2" data-name="Layer 2" xmlns="http://www.w3.org/2000/svg" xmlns:xlink="http://www.w3.org/1999/xlink" viewBox="0 0 152.16 79.02">
  <defs>
    <style>
      .cls-1 {
        clip-path: url(#clippath-34);
      }

      .cls-2 {
        fill: #006433;
      }

      .cls-3 {
        clip-path: url(#clippath-38);
      }

      .cls-4 {
        clip-path: url(#clippath-21);
      }

      .cls-5 {
        clip-path: url(#clippath-6);
      }

      .cls-6 {
        clip-path: url(#clippath-7);
      }

      .cls-7 {
        clip-path: url(#clippath-17);
      }

      .cls-8 {
        clip-path: url(#clippath-31);
      }

      .cls-9 {
        clip-path: url(#clippath-15);
      }

      .cls-10 {
        clip-path: url(#clippath-33);
      }

      .cls-11 {
        clip-path: url(#clippath-18);
      }

      .cls-12 {
        clip-path: url(#clippath-47);
      }

      .cls-13 {
        clip-path: url(#clippath-4);
      }

      .cls-14 {
        clip-path: url(#clippath-22);
      }

      .cls-15 {
        clip-path: url(#clippath-23);
      }

      .cls-16 {
        clip-path: url(#clippath-9);
      }

      .cls-17 {
        clip-path: url(#clippath-10);
      }

      .cls-18 {
        clip-path: url(#clippath-42);
      }

      .cls-19 {
        clip-path: url(#clippath-43);
      }

      .cls-20 {
        clip-path: url(#clippath-25);
      }

      .cls-21 {
        clip-path: url(#clippath-27);
      }

      .cls-22 {
        clip-path: url(#clippath-11);
      }

      .cls-23 {
        fill: none;
      }

      .cls-24, .cls-25 {
        fill: #006937;
      }

      .cls-26 {
        clip-path: url(#clippath-36);
      }

      .cls-27 {
        clip-path: url(#clippath-35);
      }

      .cls-28 {
        clip-path: url(#clippath-28);
      }

      .cls-29 {
        clip-path: url(#clippath-1);
      }

      .cls-30 {
        clip-path: url(#clippath-45);
      }

      .cls-31 {
        isolation: isolate;
      }

      .cls-32 {
        clip-path: url(#clippath-46);
      }

      .cls-33 {
        clip-path: url(#clippath-40);
      }

      .cls-34 {
        clip-path: url(#clippath-5);
      }

      .cls-35 {
        clip-path: url(#clippath-20);
      }

      .cls-36 {
        clip-path: url(#clippath-8);
      }

      .cls-37 {
        clip-path: url(#clippath-41);
      }

      .cls-38 {
        clip-path: url(#clippath-3);
      }

      .cls-39 {
        clip-path: url(#clippath-26);
      }

      .cls-40 {
        clip-path: url(#clippath-12);
      }

      .cls-41 {
        clip-path: url(#clippath-14);
      }

      .cls-42 {
        clip-path: url(#clippath-30);
      }

      .cls-43 {
        clip-path: url(#clippath-19);
      }

      .cls-44 {
        clip-path: url(#clippath-32);
      }

      .cls-25 {
        fill-rule: evenodd;
      }

      .cls-45 {
        clip-path: url(#clippath-39);
      }

      .cls-46 {
        clip-path: url(#clippath-16);
      }

      .cls-47 {
        clip-path: url(#clippath-2);
      }

      .cls-48 {
        clip-path: url(#clippath-29);
      }

      .cls-49 {
        clip-path: url(#clippath-37);
      }

      .cls-50 {
        clip-path: url(#clippath-13);
      }

      .cls-51 {
        clip-path: url(#clippath-24);
      }

      .cls-52 {
        clip-path: url(#clippath);
      }

      .cls-53 {
        clip-path: url(#clippath-44);
      }
    </style>
    <clipPath id="clippath">
      <rect class="cls-23" y="56.11" width="17.53" height="22.65"/>
    </clipPath>
    <clipPath id="clippath-1">
      <polygon class="cls-23" points="6.65 59.43 .08 59.43 .08 56.17 17.46 56.17 17.46 59.43 10.89 59.43 10.89 78.7 6.65 78.7 6.65 59.43"/>
    </clipPath>
    <clipPath id="clippath-2">
      <rect class="cls-23" y="56.11" width="17.53" height="22.65"/>
    </clipPath>
    <clipPath id="clippath-3">
      <rect class="cls-23" y="56.11" width="17.53" height="22.65"/>
    </clipPath>
    <clipPath id="clippath-4">
      <polygon class="cls-23" points="6.65 59.43 .08 59.43 .08 56.17 17.46 56.17 17.46 59.43 10.89 59.43 10.89 78.7 6.65 78.7 6.65 59.43"/>
    </clipPath>
    <clipPath id="clippath-5">
      <rect class="cls-23" x="17.15" y="63.02" width="11.26" height="15.74"/>
    </clipPath>
    <clipPath id="clippath-6">
      <path class="cls-23" d="M21.29,78.7h-4.01v-15.28h4.02v6.3h.06c0-4.17,1.7-6.6,4.6-6.6.88,0,1.73.19,2.37.49l-1.19,3.59c-.58-.34-1.37-.55-2.13-.55-2.35,0-3.71,1.92-3.71,5.14v6.91Z"/>
    </clipPath>
    <clipPath id="clippath-7">
      <rect class="cls-23" x="17.15" y="63.02" width="11.26" height="15.74"/>
    </clipPath>
    <clipPath id="clippath-8">
      <rect class="cls-23" x="17.15" y="63.02" width="11.26" height="15.74"/>
    </clipPath>
    <clipPath id="clippath-9">
      <path class="cls-23" d="M21.29,78.7h-4.01v-15.28h4.02v6.3h.06c0-4.17,1.7-6.6,4.6-6.6.88,0,1.73.19,2.37.49l-1.19,3.59c-.58-.34-1.37-.55-2.13-.55-2.35,0-3.71,1.92-3.71,5.14v6.91Z"/>
    </clipPath>
    <clipPath id="clippath-10">
      <rect class="cls-23" x="29.05" y="63.02" width="15.74" height="16"/>
    </clipPath>
    <clipPath id="clippath-11">
      <path class="cls-23" d="M29.11,71.06c0-4.99,2.25-7.95,6.09-7.95,3.41,0,5.45,2.07,5.45,5.54h.06v-5.24h4.02v15.28h-4.01v-5.26h-.06c0,3.5-2.04,5.57-5.45,5.57-3.84,0-6.09-2.95-6.09-7.94M37.05,75.78c2.44,0,3.86-1.92,3.86-4.72s-1.43-4.75-3.86-4.75-3.84,1.77-3.84,4.75,1.4,4.72,3.84,4.72"/>
    </clipPath>
    <clipPath id="clippath-12">
      <rect class="cls-23" x="29.05" y="63.02" width="15.74" height="16"/>
    </clipPath>
    <clipPath id="clippath-13">
      <rect class="cls-23" x="29.05" y="63.02" width="15.74" height="16"/>
    </clipPath>
    <clipPath id="clippath-14">
      <path class="cls-23" d="M29.11,71.06c0-4.99,2.25-7.95,6.09-7.95,3.41,0,5.45,2.07,5.45,5.54h.06v-5.24h4.02v15.28h-4.01v-5.26h-.06c0,3.5-2.04,5.57-5.45,5.57-3.84,0-6.09-2.95-6.09-7.94M37.05,75.78c2.44,0,3.86-1.92,3.86-4.72s-1.43-4.75-3.86-4.75-3.84,1.77-3.84,4.75,1.4,4.72,3.84,4.72"/>
    </clipPath>
    <clipPath id="clippath-15">
      <rect class="cls-23" x="47.22" y="63.41" width="15.74" height="15.36"/>
    </clipPath>
    <clipPath id="clippath-16">
      <polygon class="cls-23" points="47.34 63.42 51.63 63.42 55.1 78.43 55.17 78.43 58.64 63.42 62.93 63.42 58.93 78.7 51.35 78.7 47.34 63.42"/>
    </clipPath>
    <clipPath id="clippath-17">
      <rect class="cls-23" x="47.22" y="63.41" width="15.74" height="15.36"/>
    </clipPath>
    <clipPath id="clippath-18">
      <rect class="cls-23" x="47.22" y="63.41" width="15.74" height="15.36"/>
    </clipPath>
    <clipPath id="clippath-19">
      <polygon class="cls-23" points="47.34 63.42 51.63 63.42 55.1 78.43 55.17 78.43 58.64 63.42 62.93 63.42 58.93 78.7 51.35 78.7 47.34 63.42"/>
    </clipPath>
    <clipPath id="clippath-20">
      <rect class="cls-23" x="64.37" y="63.02" width="15.23" height="16"/>
    </clipPath>
    <clipPath id="clippath-21">
      <path class="cls-23" d="M64.47,71.06c0-5.02,2.83-7.95,7.55-7.95s7.49,2.92,7.49,7.95v.45h-11.14c.15,2.8,1.49,4.44,3.65,4.44,1.89,0,3.19-1.03,3.59-2.71h3.89c-.58,3.62-3.35,5.75-7.49,5.75-4.72,0-7.55-2.95-7.55-7.94M75.58,70.15c-.24-2.53-1.55-3.99-3.56-3.99s-3.35,1.46-3.62,3.99h7.18Z"/>
    </clipPath>
    <clipPath id="clippath-22">
      <rect class="cls-23" x="64.37" y="63.02" width="15.23" height="16"/>
    </clipPath>
    <clipPath id="clippath-23">
      <rect class="cls-23" x="64.37" y="63.02" width="15.23" height="16"/>
    </clipPath>
    <clipPath id="clippath-24">
      <path class="cls-23" d="M64.47,71.06c0-5.02,2.83-7.95,7.55-7.95s7.49,2.92,7.49,7.95v.45h-11.14c.15,2.8,1.49,4.44,3.65,4.44,1.89,0,3.19-1.03,3.59-2.71h3.89c-.58,3.62-3.35,5.75-7.49,5.75-4.72,0-7.55-2.95-7.55-7.94M75.58,70.15c-.24-2.53-1.55-3.99-3.56-3.99s-3.35,1.46-3.62,3.99h7.18Z"/>
    </clipPath>
    <clipPath id="clippath-25">
      <rect class="cls-23" x="82.63" y="55.26" width="4.02" height="23.43"/>
    </clipPath>
    <clipPath id="clippath-26">
      <rect class="cls-23" x="82.54" y="55.22" width="4.22" height="23.55"/>
    </clipPath>
    <clipPath id="clippath-27">
      <rect class="cls-23" x="82.63" y="55.26" width="4.02" height="23.43"/>
    </clipPath>
    <clipPath id="clippath-28">
      <rect class="cls-23" x="97.64" y="56.11" width="14.72" height="22.65"/>
    </clipPath>
    <clipPath id="clippath-29">
      <polygon class="cls-23" points="97.76 56.17 112.34 56.17 112.34 59.43 101.93 59.43 101.93 65.8 110.75 65.8 110.75 69.03 101.93 69.03 101.93 78.7 97.76 78.7 97.76 56.17"/>
    </clipPath>
    <clipPath id="clippath-30">
      <rect class="cls-23" x="97.64" y="56.11" width="14.72" height="22.65"/>
    </clipPath>
    <clipPath id="clippath-31">
      <rect class="cls-23" x="97.64" y="56.11" width="14.72" height="22.65"/>
    </clipPath>
    <clipPath id="clippath-32">
      <polygon class="cls-23" points="97.76 56.17 112.34 56.17 112.34 59.43 101.93 59.43 101.93 65.8 110.75 65.8 110.75 69.03 101.93 69.03 101.93 78.7 97.76 78.7 97.76 56.17"/>
    </clipPath>
    <clipPath id="clippath-33">
      <rect class="cls-23" x="113.38" y="63.02" width="15.74" height="16"/>
    </clipPath>
    <clipPath id="clippath-34">
      <path class="cls-23" d="M113.43,71.06c0-4.99,2.25-7.95,6.09-7.95,3.41,0,5.45,2.07,5.45,5.54h.06v-5.24h4.01v15.28h-4.01v-5.26h-.06c0,3.5-2.04,5.57-5.45,5.57-3.84,0-6.09-2.95-6.09-7.94M121.38,75.78c2.43,0,3.86-1.92,3.86-4.72s-1.43-4.75-3.86-4.75-3.84,1.77-3.84,4.75,1.4,4.72,3.84,4.72"/>
    </clipPath>
    <clipPath id="clippath-35">
      <rect class="cls-23" x="113.38" y="63.02" width="15.74" height="16"/>
    </clipPath>
    <clipPath id="clippath-36">
      <rect class="cls-23" x="113.38" y="63.02" width="15.74" height="16"/>
    </clipPath>
    <clipPath id="clippath-37">
      <path class="cls-23" d="M113.43,71.06c0-4.99,2.25-7.95,6.09-7.95,3.41,0,5.45,2.07,5.45,5.54h.06v-5.24h4.01v15.28h-4.01v-5.26h-.06c0,3.5-2.04,5.57-5.45,5.57-3.84,0-6.09-2.95-6.09-7.94M121.38,75.78c2.43,0,3.86-1.92,3.86-4.72s-1.43-4.75-3.86-4.75-3.84,1.77-3.84,4.75,1.4,4.72,3.84,4.72"/>
    </clipPath>
    <clipPath id="clippath-38">
      <rect class="cls-23" x="132.96" y="56.62" width="4.1" height="22.14"/>
    </clipPath>
    <clipPath id="clippath-39">
      <path class="cls-23" d="M133.03,56.7h4.01v3.81h-4.01v-3.81ZM133.03,63.42h4.01v15.28h-4.01v-15.28Z"/>
    </clipPath>
    <clipPath id="clippath-40">
      <rect class="cls-23" x="132.96" y="56.62" width="4.1" height="22.14"/>
    </clipPath>
    <clipPath id="clippath-41">
      <rect class="cls-23" x="132.96" y="56.62" width="4.1" height="22.14"/>
    </clipPath>
    <clipPath id="clippath-42">
      <path class="cls-23" d="M133.03,56.7h4.01v3.81h-4.01v-3.81ZM133.03,63.42h4.01v15.28h-4.01v-15.28Z"/>
    </clipPath>
    <clipPath id="clippath-43">
      <rect class="cls-23" x="141.03" y="63.02" width="11.13" height="15.74"/>
    </clipPath>
    <clipPath id="clippath-44">
      <path class="cls-23" d="M145.05,78.7h-4.01v-15.28h4.01v6.3h.06c0-4.17,1.7-6.6,4.6-6.6.88,0,1.73.19,2.37.49l-1.19,3.59c-.58-.34-1.37-.55-2.13-.55-2.35,0-3.71,1.92-3.71,5.14v6.91Z"/>
    </clipPath>
    <clipPath id="clippath-45">
      <rect class="cls-23" x="141.03" y="63.02" width="11.13" height="15.74"/>
    </clipPath>
    <clipPath id="clippath-46">
      <rect class="cls-23" x="141.03" y="63.02" width="11.13" height="15.74"/>
    </clipPath>
    <clipPath id="clippath-47">
      <path class="cls-23" d="M145.05,78.7h-4.01v-15.28h4.01v6.3h.06c0-4.17,1.7-6.6,4.6-6.6.88,0,1.73.19,2.37.49l-1.19,3.59c-.58-.34-1.37-.55-2.13-.55-2.35,0-3.71,1.92-3.71,5.14v6.91Z"/>
    </clipPath>
  </defs>
  <g id="Layer_1-2" data-name="Layer 1">
    <g>
      <g class="cls-52">
        <g class="cls-29">
          <g class="cls-31">
            <g class="cls-47">
              <g class="cls-38">
                <g class="cls-13">
                  <rect class="cls-2" x="-3.49" y="51.7" width="93.7" height="30.87"/>
                </g>
              </g>
            </g>
          </g>
        </g>
      </g>
      <g class="cls-34">
        <g class="cls-5">
          <g class="cls-31">
            <g class="cls-6">
              <g class="cls-36">
                <g class="cls-16">
                  <rect class="cls-2" x="-3.49" y="51.7" width="93.7" height="30.87"/>
                </g>
              </g>
            </g>
          </g>
        </g>
      </g>
      <g class="cls-17">
        <g class="cls-22">
          <g class="cls-31">
            <g class="cls-40">
              <g class="cls-50">
                <g class="cls-41">
                  <rect class="cls-2" x="-3.49" y="51.7" width="93.7" height="30.87"/>
                </g>
              </g>
            </g>
          </g>
        </g>
      </g>
      <g class="cls-9">
        <g class="cls-46">
          <g class="cls-31">
            <g class="cls-7">
              <g class="cls-11">
                <g class="cls-43">
                  <rect class="cls-2" x="-3.49" y="51.7" width="93.7" height="30.87"/>
                </g>
              </g>
            </g>
          </g>
        </g>
      </g>
      <g class="cls-35">
        <g class="cls-4">
          <g class="cls-31">
            <g class="cls-14">
              <g class="cls-15">
                <g class="cls-51">
                  <rect class="cls-2" x="-3.49" y="51.7" width="93.7" height="30.87"/>
                </g>
              </g>
            </g>
          </g>
        </g>
      </g>
      <g class="cls-20">
        <g class="cls-31">
          <g class="cls-39">
            <g class="cls-21">
              <rect class="cls-2" x="-3.49" y="51.7" width="93.7" height="30.87"/>
            </g>
          </g>
        </g>
      </g>
      <g class="cls-28">
        <g class="cls-48">
          <g class="cls-31">
            <g class="cls-42">
              <g class="cls-8">
                <g class="cls-44">
                  <rect class="cls-2" x="94.19" y="52.61" width="61.43" height="29.96"/>
                </g>
              </g>
            </g>
          </g>
        </g>
      </g>
      <g class="cls-10">
        <g class="cls-1">
          <g class="cls-31">
            <g class="cls-27">
              <g class="cls-26">
                <g class="cls-49">
                  <rect class="cls-2" x="94.19" y="52.61" width="61.43" height="29.96"/>
                </g>
              </g>
            </g>
          </g>
        </g>
      </g>
      <g class="cls-3">
        <g class="cls-45">
          <g class="cls-31">
            <g class="cls-33">
              <g class="cls-37">
                <g class="cls-18">
                  <rect class="cls-2" x="94.19" y="52.61" width="61.43" height="29.96"/>
                </g>
              </g>
            </g>
          </g>
        </g>
      </g>
      <g class="cls-19">
        <g class="cls-53">
          <g class="cls-31">
            <g class="cls-30">
              <g class="cls-32">
                <g class="cls-12">
                  <rect class="cls-2" x="94.19" y="52.61" width="61.43" height="29.96"/>
                </g>
              </g>
            </g>
          </g>
        </g>
      </g>
      <path class="cls-24" d="M33.95,29.47l-1.37.91-1.23-1.42c.83-.48,1.66-.96,2.49-1.46,1.38-.83,2.73-1.71,4.12-2.54-.04-.03-.08-.05-.12-.07-2.46-1.44-4.97-2.84-7.65-3.8-2.1-.86-4.41-1.04-6.65-1.12l7.81,8.98s-.3.23-.73.49c-2.59,1.59-4.15,1.82-6.25,1.98,1.93.42,2.75.97,5.58.31.99-.23,2.59-1.3,2.64-1.34l6.57,7.57-.41-11.57c-1.61,1.01-3.2,2.04-4.79,3.09M29.8,20.04c3.1.71,6,2.14,8.84,3.57l-.26-7.32-21.51-4.49c-.17-.04-.29.18-.17.31l6.83,7.86c2.09-.39,4.2-.4,6.27.07M62.75,11.81l-21.51,4.49-.26,7.32c2.84-1.43,5.74-2.86,8.84-3.57,2.07-.47,4.18-.45,6.27-.07l6.83-7.86c.12-.13,0-.35-.17-.31M41.97,14.88s.78-2.87.02-5.78c.63.54,1.38,1.32,1.97,2.35.82,1.45,1.05,2.56,1.05,2.56,0,0,.34-1.7-.19-3.24-.17-.5-.61-1.83-1.48-2.7.69.33,1.5.82,2.33,1.55,1.41,1.24,2.24,2.35,2.24,2.35,0,0-.26-1.91-1.29-3.27-1.18-1.57-2.78-2.19-3.92-2.44.71-.1,1.55-.11,2.45.11,1.83.44,3.04,1.42,3.04,1.42,0,0-1.09-1.79-2.88-2.61-1.33-.61-2.64-.62-3.66-.46.08-.17.19-.33.32-.45.32-.3.67-.48.67-.48,0,0-.76-.2-1.41.06-.34.13-.61.33-.81.51-.02-.19-.06-.39-.11-.6-.08-.33-.45-1.03-.48-1.09-.03.06-.4.76-.48,1.09-.05.21-.08.41-.11.6-.2-.19-.47-.38-.81-.51-.66-.26-1.42-.06-1.42-.06,0,0,.36.18.67.48.13.13.24.28.32.45-1.02-.16-2.33-.15-3.66.46-1.79.82-2.89,2.61-2.89,2.61,0,0,1.22-.98,3.04-1.42.9-.22,1.74-.21,2.45-.11-1.14.26-2.74.88-3.93,2.44-1.03,1.36-1.29,3.27-1.29,3.27,0,0,.83-1.11,2.24-2.35.83-.73,1.65-1.22,2.33-1.55-.88.86-1.31,2.19-1.48,2.7-.53,1.53-.19,3.24-.19,3.24,0,0,.22-1.11,1.04-2.56.58-1.03,1.34-1.81,1.96-2.35-.75,2.91.03,5.78.03,5.78,0,0,.47-2.21,1.18-4.07.3-.8.65-1.4.98-1.85.33.45.68,1.05.98,1.85.71,1.87,1.18,4.07,1.18,4.07M41.8,24.89s-.08.05-.12.07c1.38.83,2.74,1.71,4.12,2.54.82.5,1.65.98,2.48,1.46l-1.23,1.42-1.37-.91c-1.59-1.05-3.18-2.08-4.79-3.09l-.42,11.57,6.57-7.57c.05.04,1.65,1.11,2.65,1.34,2.83.66,3.65.11,5.58-.31-2.1-.16-3.67-.38-6.25-1.98-.43-.26-.69-.46-.73-.49l7.81-8.98c-2.24.08-4.55.25-6.65,1.12-2.69.95-5.19,2.36-7.65,3.8"/>
      <g>
        <polygon class="cls-25" points="74.21 14.46 71.42 14.46 68.64 17.37 68.64 20.27 68.64 23.18 71.42 23.18 74.21 23.18 77 23.18 77 26.08 74.21 26.08 71.42 26.08 68.64 26.08 68.64 28.98 71.42 28.98 74.21 28.98 77 28.98 79.79 26.08 79.79 23.18 79.79 20.27 77 20.27 74.21 20.27 71.42 20.27 71.42 17.37 74.21 17.37 77 17.37 79.79 17.37 79.79 14.46 77 14.46 74.21 14.46"/>
        <polygon class="cls-25" points="89.91 17.37 87.12 17.37 84.33 17.37 81.54 20.27 81.54 23.17 81.54 26.08 81.54 28.98 84.33 28.98 87.12 28.98 89.91 26.08 87.12 26.08 84.33 26.08 84.33 23.17 84.33 20.27 87.12 20.27 89.91 20.27 89.91 23.18 89.91 24.45 89.91 26.08 89.91 28.98 92.7 28.98 92.7 26.08 92.7 24.45 92.7 23.18 92.7 20.27 92.7 17.37 89.91 17.37"/>
        <polygon class="cls-25" points="133.15 17.37 133.15 17.37 130.36 17.37 127.57 17.37 124.78 20.27 124.78 23.17 124.78 26.08 124.78 28.98 127.57 28.98 130.36 28.98 133.15 26.08 130.36 26.08 127.57 26.08 127.57 23.17 127.57 20.27 130.36 20.27 133.15 20.27 133.15 23.18 133.15 24.7 133.15 26.08 133.15 28.98 135.94 28.98 135.94 26.08 135.94 24.7 135.94 23.18 135.94 20.27 135.94 17.37 133.15 17.37"/>
        <polygon class="cls-25" points="115.71 14.46 115.71 17.37 112.93 17.37 110.13 17.37 107.35 20.27 107.35 23.18 107.35 26.08 107.35 28.98 110.13 28.98 112.93 28.98 115.71 26.08 112.93 26.08 110.13 26.08 110.13 23.18 110.13 20.27 112.93 20.27 115.71 20.27 115.71 23.18 115.71 25.2 115.71 26.08 115.71 28.98 118.5 28.98 118.5 26.08 118.5 25.2 118.5 23.18 118.5 20.27 118.5 17.37 118.5 14.46 118.5 11.56 115.71 11.56 115.71 14.46"/>
        <polygon class="cls-25" points="102.81 20.27 102.81 23.18 102.81 24.45 102.81 26.08 100.02 26.08 97.23 26.08 97.23 23.17 97.23 20.27 97.23 17.37 94.44 17.37 94.44 20.27 94.44 23.17 94.44 26.08 94.44 28.98 97.23 28.98 100.02 28.98 102.81 28.98 105.6 26.08 105.6 24.45 105.6 23.18 105.6 20.27 105.6 17.37 102.81 17.37 102.81 20.27"/>
        <rect class="cls-24" x="120.25" y="11.55" width="2.79" height="2.91"/>
        <polygon class="cls-25" points="120.25 20.27 120.25 23.18 120.25 25.2 120.25 26.08 120.25 26.08 120.25 28.98 123.04 28.98 123.04 26.08 123.04 26.08 123.04 25.2 123.04 23.18 123.04 20.27 123.04 17.37 120.25 17.37 120.25 20.27"/>
      </g>
    </g>
  </g>
</svg>